<svg xmlns="http://www.w3.org/2000/svg" viewBox="0 0 193.64 376.18"><defs><style>.cls-1{fill:none;stroke-width:12px;}.cls-1,.cls-2{stroke:#000;stroke-miterlimit:10;}.cls-2{stroke-width:8.42px;}</style></defs><g id="Layer_2" data-name="Layer 2"><g id="REACTION_Logo" data-name="REACTION Logo"><g id="Option_1" data-name="Option 1"><line class="cls-1" x1="56.2" y1="0.04" x2="56.2" y2="375.54"/><line class="cls-1" x1="31.1" y1="0.04" x2="31.1" y2="375.54"/><line class="cls-1" x1="6" y1="0.04" x2="6" y2="375.54"/><path class="cls-1" d="M69.58,220.81c62.39,0,112.88-48,112.88-107.4S132,6,69.58,6"/><path class="cls-1" d="M69.58,43.91c40.37,0,73,31.08,73,69.5S110,182.9,69.58,182.9"/><path class="cls-1" d="M69.58,147.14c19.6,0,35.46-15.09,35.46-33.73S89.18,79.67,69.58,79.67"/><path class="cls-1" d="M72.28,220.82c130.24,0,114.79,134.44,114.79,155.29"/><path class="cls-1" d="M159.11,376.11c0-23.74,10.85-127.26-87.82-127.26"/><path class="cls-1" d="M71.29,276.85c66.75,0,59.82,87,59.68,99.26"/><path class="cls-2" d="M69.58,105.47a7.4,7.4,0,0,1,0,14.8"/></g></g></g></svg>